<?xml version="1.0" encoding="iso-8859-1"?>
<!-- Generator: Adobe Illustrator 19.0.0, SVG Export Plug-In . SVG Version: 6.00 Build 0)  -->
<svg xmlns="http://www.w3.org/2000/svg" xmlns:xlink="http://www.w3.org/1999/xlink" version="1.1"
    id="Capa_1" x="0px" y="0px"
    viewBox="-20 -20 552 552"
    style="enable-background:new 20 20 552 552;"
    stroke="#000000" fill="#ffffff"
    xml:space="preserve" stroke-width="20">
                <g><g><path d="M508.354,247.964l-85.333-74.667c-3.146-2.74-7.604-3.396-11.438-1.677c-3.813,1.729-6.25,5.521-6.25,9.708v32H106.667    v-32c0-4.188-2.438-7.979-6.25-9.708c-3.833-1.74-8.292-1.063-11.438,1.677L3.646,247.964C1.333,249.995,0,252.922,0,255.995    s1.333,6,3.646,8.031l85.333,74.667c3.167,2.76,7.625,3.427,11.438,1.677c3.813-1.729,6.25-5.521,6.25-9.708v-32h298.667v32    c0,4.188,2.438,7.979,6.25,9.708c1.417,0.646,2.917,0.958,4.417,0.958c2.542,0,5.042-0.906,7.021-2.635l85.333-74.667    c2.312-2.031,3.646-4.958,3.646-8.031S510.666,249.995,508.354,247.964z"/></g></g><g></g><g></g><g></g><g></g><g></g><g></g><g></g><g></g><g></g><g></g><g></g><g></g><g></g><g></g><g></g>
            </svg>